<?xml version="1.0" encoding="utf-8"?>

<!DOCTYPE svg PUBLIC "-//W3C//DTD SVG 1.1//EN" "http://www.w3.org/Graphics/SVG/1.1/DTD/svg11.dtd">
<!-- Uploaded to: SVG Repo, www.svgrepo.com, Generator: SVG Repo Mixer Tools -->
<svg height="800px" width="800px" version="1.1" id="_x32_" xmlns="http://www.w3.org/2000/svg" xmlns:xlink="http://www.w3.org/1999/xlink" 
	 viewBox="0 0 512 512"  xml:space="preserve">
<style type="text/css">
	.st0{fill:#000000;}
</style>
<g>
	<path class="st0" d="M474.804,217.596c-21.837-13.907-32.651-28.861-28.686-52.668c3.957-23.766,4.955-68.928-12.768-86.882
		c-17.963-17.723-63.116-16.725-86.882-12.768c-23.816,3.965-38.844-6.775-52.743-28.604C274.266,6.093,249.253-6.434,222.669,3.167
		c-32.061,11.596-35.419,51.504-25.751,89.276c11.579,45.336,9.002,69.134-9.22,70.78c-20.007,1.804-12.585-19.726-35.718-37.714
		c-26.791-20.848-53.482,10.591-47.63,35.711c8.195,35.203,30.822,86.467,32.061,97.572c1.994,17.856-15.877,19.834-32.743-6.949
		c-16.858-26.799-36.716-16.883-45.636-0.008c-8.944,16.874-0.989,42.668,7.939,69.468c8.919,26.791,3.965,59.534-13.483,40.282
		c-17.465-19.243-28.204-14.488-38.121-2.576c-9.925,11.903,10.673,41.354,17.638,71.537c6.975,30.199-10.324,48.545-25.012,61.686
		c-13.783,12.344-3.408,30.008,12.244,12.245c13.018-14.78,31.414-32.062,61.604-25.095c30.191,6.974,59.634,27.564,71.546,17.638
		c11.912-9.916,16.666-20.648-2.577-38.104c-19.252-17.456,13.491-22.41,40.282-13.491c26.799,8.928,52.593,16.874,69.467,7.938
		c16.866-8.919,26.8-28.769,0-45.635c-26.799-16.883-24.812-34.746-6.958-32.751c11.106,1.238,62.378,23.865,97.565,32.061
		c25.128,5.86,56.566-20.831,35.719-47.623c-17.981-23.133-37.24-17.422-35.429-37.431c1.638-18.222,23.176-19.119,68.52-7.523
		c37.772,9.651,77.698,6.292,89.285-25.786C517.871,262.093,505.378,237.048,474.804,217.596z"/>
</g>
</svg>