<?xml version="1.0" encoding="utf-8"?>

<!DOCTYPE svg PUBLIC "-//W3C//DTD SVG 1.1//EN" "http://www.w3.org/Graphics/SVG/1.1/DTD/svg11.dtd">
<!-- Uploaded to: SVG Repo, www.svgrepo.com, Generator: SVG Repo Mixer Tools -->
<svg height="800px" width="800px" version="1.1" id="_x32_" xmlns="http://www.w3.org/2000/svg" xmlns:xlink="http://www.w3.org/1999/xlink" 
	 viewBox="0 0 512 512"  xml:space="preserve">
<style type="text/css">
	.st0{fill:#000000;}
</style>
<g>
	<path class="st0" d="M54.059,365.448l-0.895-0.997c-0.037-0.044-0.072-0.08-0.109-0.116L54.059,365.448z"/>
	<path class="st0" d="M509.543,256.193c-3.029-11.219-9.516-21.462-18.55-30.49c-5.555-5.554-12.093-10.695-19.54-15.434
		c-5.592-3.553-10.141-7.07-13.614-10.534c-4.274-4.296-6.895-8.394-8.373-12.872c-1.464-4.499-1.886-9.654-0.772-16.461
		c2.038-12.318,3.283-29.492,1.769-46.536c-0.772-8.51-2.235-17-4.834-24.884c-2.526-7.637-6.138-14.815-11.722-20.639l0.014-0.029
		l-0.277-0.277l-0.262-0.262l-0.095-0.095l-0.007,0.015c-5.868-5.679-13.126-9.349-20.851-11.904
		c-11.823-3.888-24.993-5.271-37.61-5.482c-12.602-0.182-24.556,0.881-33.802,2.417c-6.836,1.122-12.02,0.7-16.548-0.772
		c-4.514-1.485-8.634-4.113-12.937-8.408c-3.458-3.443-6.938-7.965-10.462-13.505c-4.747-7.448-9.894-14.007-15.456-19.577
		c-9.02-9.02-19.249-15.5-30.454-18.543c-11.189-3.058-23.166-2.461-34.704,1.748c-7.368,2.65-13.731,6.734-18.82,11.83
		c-5.278,5.27-9.18,11.561-11.896,18.324c-4.07,10.163-5.613,21.375-5.503,32.907c0.124,11.539,1.914,23.435,4.885,35.062
		c4.222,16.446,6.304,29.623,6.392,38.884c0.072,4.616-0.386,8.227-1.056,10.651c-0.684,2.461-1.499,3.604-2.016,4.12
		c-0.313,0.299-0.553,0.466-0.954,0.649c-0.4,0.182-0.99,0.356-1.922,0.444c-1.696,0.16-2.417-0.036-2.577-0.08l-0.066-0.022
		l-0.124-0.117c-0.233-0.211-0.888-1.062-1.732-2.672c-1.274-2.41-2.883-6.326-5.351-10.906c-2.475-4.586-5.904-9.843-10.978-14.91
		c-1.799-1.79-3.786-3.552-5.999-5.278c-4.23-3.297-8.722-5.693-13.338-7.142c-6.909-2.169-14.022-2.038-20.283-0.109
		c-6.276,1.907-11.692,5.46-16.089,9.864c-5.351,5.366-9.304,12.012-11.612,19.279c-2.279,7.251-2.912,15.208-1.1,23.071
		c4.164,17.808,11.67,38.738,18.259,56.677c3.284,8.962,6.349,17.145,8.613,23.602c1.128,3.233,2.06,6.028,2.701,8.191
		c0.328,1.07,0.576,1.994,0.735,2.679c0.138,0.56,0.189,0.918,0.212,1.049c-1.208-0.75-2.723-1.879-4.427-3.597
		c-2.293-2.293-4.885-5.504-7.55-9.741v0.015c-2.526-4.026-5.234-7.484-8.14-10.404c-3.552-3.553-7.44-6.29-11.626-8.074
		c-6.262-2.722-13.127-2.978-19.009-1.266c-5.927,1.696-10.899,5.038-14.946,9.086c-3.335,3.341-6.08,7.192-8.286,11.335
		c-2.97,5.613-4.397,11.707-4.826,17.808c-0.634,9.188,0.808,18.535,3.072,28.087c2.286,9.537,5.452,19.293,8.685,28.983
		c2.476,7.375,3.691,15.646,3.633,22.125c-0.007,1.638-0.109,3.153-0.254,4.499c-0.474-0.502-0.954-1.034-1.428-1.507
		c-3.894-3.888-7.724-6.938-11.779-9.158c-3.036-1.646-6.225-2.826-9.516-3.35c-4.951-0.837-9.996,0.015-14.102,1.886
		c-4.143,1.871-7.477,4.536-10.374,7.433c-1.325,1.326-2.563,2.708-3.756,4.143c-2.468,2.948-3.932,6.502-4.543,9.864
		c-1.041,5.927-0.087,11.3,1.303,16.679c2.155,8.038,5.701,16.33,9.173,25.03c3.473,8.664,6.85,17.618,8.809,26.151
		c2.33,10.33,1.202,17.96-1.572,24.826c-2.803,6.843-7.616,12.915-13.141,18.419c-1.958,1.958-3.982,3.829-6.013,5.664
		c-0.481,0.415-0.939,0.852-1.391,1.296c-4.434,4.448-7.222,9.712-8.052,15.193c-0.408,2.745-0.328,5.556,0.4,8.336
		c0.735,2.759,2.162,5.526,4.426,7.79c1.922,1.944,4.47,3.437,7.208,4.157c4.135,1.114,8.365,0.517,11.99-0.997
		c3.648-1.522,6.902-3.903,10.025-7.012c0.692-0.691,1.384-1.434,2.06-2.206c1.9-2.154,3.873-4.295,5.92-6.348
		c5.445-5.453,11.466-10.163,18.236-12.908c6.807-2.715,14.401-3.8,24.63-1.493c6.494,1.5,13.257,3.815,19.926,6.378
		c10.04,3.83,19.744,8.198,28.946,10.964c4.63,1.361,9.173,2.38,14.029,2.395c2.424-0.007,4.95-0.284,7.506-1.07
		c2.548-0.764,5.118-2.075,7.324-3.917c1.427-1.186,2.81-2.431,4.135-3.764c2.585-2.57,4.958-5.49,6.778-9.013
		c1.368-2.636,2.366-5.657,2.715-8.897c0.554-4.849-0.495-9.952-2.744-14.546c-2.242-4.63-5.555-8.918-9.938-13.3
		c-0.466-0.473-0.983-0.939-1.486-1.413c3.152-0.356,7.222-0.379,11.619,0.11c4.878,0.524,10.12,1.623,14.976,3.254
		c12.945,4.296,25.932,8.518,38.484,10.622c6.283,1.041,12.479,1.558,18.602,1.129c6.1-0.43,12.179-1.857,17.793-4.835
		c4.15-2.191,8.001-4.95,11.343-8.277c2.715-2.708,5.081-5.81,6.88-9.341c2.708-5.249,4.048-11.692,2.869-18.215
		c-1.15-6.53-4.682-12.733-10.011-18.034c-2.904-2.904-6.37-5.605-10.396-8.139l-0.524-0.327l0.524,0.32
		c-4.216-2.65-7.433-5.242-9.719-7.536c-1.726-1.696-2.861-3.225-3.618-4.426c0.131,0.007,0.488,0.08,1.063,0.225
		c1.296,0.292,3.364,0.903,5.876,1.718c8.838,2.89,23.1,8.38,38.52,13.934c15.456,5.556,32.127,11.219,46.753,14.634
		c7.863,1.828,15.82,1.187,23.079-1.106c7.258-2.3,13.905-6.246,19.278-11.604c5.853-5.846,10.25-13.6,11.175-22.591
		c0.466-4.47,0.008-9.174-1.419-13.775c-1.449-4.615-3.844-9.1-7.142-13.337c-1.951-2.512-3.938-4.74-5.926-6.735
		c-6.006-6.006-12.035-9.755-16.702-12.42c-2.33-1.324-4.317-2.409-5.773-3.305c-1.471-0.895-2.374-1.602-2.767-2.002
		c-0.422-0.466-0.379-0.437-0.502-0.764c-0.109-0.313-0.313-1.231-0.138-3.24c0.095-1.041,0.291-1.682,0.451-2.06
		c0.168-0.364,0.27-0.502,0.458-0.698c0.299-0.292,1.092-0.918,3.298-1.471c3.248-0.83,9.261-1.04,17.437-0.007
		c8.19,0.997,18.55,3.124,30.941,6.298h0.007c15.506,3.952,31.487,5.853,46.463,4.412c7.484-0.736,14.742-2.315,21.52-5.038
		c6.763-2.722,13.054-6.625,18.317-11.896c5.104-5.089,9.181-11.466,11.83-18.834C511.996,279.374,512.601,267.39,509.543,256.193z
		 M68.678,350.152h-0.007l-1.012-1.114L68.678,350.152z M161.276,442.757c0-0.007-0.008-0.007-0.015-0.022l0.452,0.422
		L161.276,442.757z M487.957,283.756c-1.674,4.608-3.996,8.147-6.916,11.088c-3.022,3.014-6.756,5.402-11.285,7.237
		c-6.778,2.745-15.339,4.091-24.826,3.989c-9.479-0.095-19.81-1.616-30.06-4.229c-17.24-4.398-31.175-7.077-42.706-7.586
		c-5.767-0.233-10.979,0.058-15.871,1.23c-4.849,1.172-9.537,3.349-13.229,7.055c-2.118,2.104-3.815,4.652-4.958,7.36
		c-1.158,2.716-1.791,5.562-2.046,8.416c-0.371,4.019-0.116,7.921,1.063,11.598c1.15,3.684,3.305,6.902,5.671,9.216
		c2.206,2.199,4.492,3.742,6.662,5.075c6.501,3.91,12.304,6.407,18.572,12.66c1.376,1.384,2.774,2.948,4.194,4.762
		c1.922,2.49,3.028,4.71,3.64,6.668c0.903,2.948,0.815,5.366,0.072,7.856c-0.735,2.482-2.293,5.024-4.594,7.317
		c-2.774,2.803-6.64,5.133-10.716,6.414c-4.084,1.296-8.3,1.529-11.933,0.67c-15.943-3.698-36.459-10.972-54.194-17.495
		c-8.897-3.269-17.094-6.349-23.902-8.736c-3.407-1.187-6.458-2.206-9.151-3.014c-1.354-0.393-2.614-0.743-3.83-1.034
		c-1.23-0.291-2.388-0.525-3.705-0.67h-0.008h0.014c-0.007,0-0.014,0-0.029-0.008l-0.932-0.101l0.881,0.101
		c-3.422-0.364-6.77-0.262-10.054,0.554c-3.277,0.822-6.56,2.431-9.188,5.066c-2.402,2.381-4.106,5.591-4.761,8.839
		c-1.02,4.936-0.015,9.646,1.885,13.862c1.937,4.237,4.849,8.175,8.671,12.012c3.611,3.604,8.052,7.105,13.396,10.476
		c2.92,1.835,5.118,3.604,6.719,5.205c1.974,1.966,3.036,3.654,3.596,4.994c0.816,2.01,0.816,3.284,0.372,4.988
		c-0.452,1.667-1.66,3.734-3.706,5.773c-1.66,1.659-3.851,3.269-6.297,4.557c-2.461,1.318-5.541,2.155-9.428,2.432
		c-5.802,0.43-13.309-0.532-21.688-2.548c-8.379-2.002-17.64-4.98-27.206-8.183c-9.763-3.233-19.89-4.754-28.954-4.718
		c-4.536,0.044-8.816,0.466-12.842,1.478c-2.016,0.509-3.975,1.172-5.904,2.104c-1.922,0.939-3.851,2.155-5.628,3.917
		c-1.645,1.638-3.153,3.836-3.982,6.436c-0.633,1.936-0.866,4.041-0.706,6.021c0.232,2.992,1.245,5.613,2.556,7.863
		c1.31,2.271,2.934,4.244,4.834,6.144c0.495,0.502,1.019,1.004,1.572,1.5l-0.924-0.831l0.932,0.837
		c0.844,0.772,1.631,1.515,2.344,2.228c2.854,2.854,4.615,5.234,5.54,6.952c0.707,1.288,0.961,2.184,1.049,2.774
		c0.109,0.874,0.072,1.194-0.313,2.155c-0.401,0.903-1.369,2.344-3.087,4.048c-0.757,0.757-1.66,1.565-2.664,2.409
		c-0.051,0.022-0.364,0.146-1.238,0.168c-1.609,0.058-4.776-0.452-8.722-1.682c-5.948-1.813-13.592-5.03-22.023-8.394
		c-8.452-3.356-17.756-6.843-27.562-9.114c-14.109-3.313-26.864-1.798-37.312,2.497c-2.898,1.179-5.599,2.556-8.147,4.048
		c1.434-2.468,2.766-5.075,3.909-7.855c4.383-10.498,5.978-23.363,2.636-37.61c-1.849-7.98-4.506-15.602-7.229-22.722
		c-4.091-10.644-8.358-20.297-10.447-27.425c-1.07-3.531-1.536-6.392-1.515-7.979c0-0.786,0.095-1.237,0.146-1.398l0.007-0.015
		c0.845-1.004,1.653-1.907,2.41-2.672c1.514-1.522,2.832-2.468,3.735-2.926c0.698-0.35,1.136-0.459,1.536-0.51
		c0.582-0.036,1.325-0.058,3.102,0.772c1.74,0.823,4.354,2.643,7.564,5.854c0.706,0.706,1.456,1.492,2.235,2.351l0.109,0.124
		c0.466,0.502,0.924,0.99,1.384,1.448c1.696,1.697,3.444,3.16,5.402,4.39c1.463,0.924,3.05,1.711,4.834,2.264
		c2.643,0.852,5.81,1.085,8.816,0.313c3.007-0.75,5.584-2.417,7.412-4.273c1.777-1.769,2.978-3.692,3.924-5.62
		c1.616-3.371,2.461-6.851,3.008-10.535c0.772-5.519,0.742-11.554,0.058-17.881c-0.699-6.305-2.075-12.886-4.201-19.278
		c-4.267-12.748-8.132-24.986-9.836-35.272c-0.866-5.133-1.172-9.756-0.896-13.629c0.284-3.888,1.121-6.96,2.424-9.428
		c1.296-2.454,2.898-4.638,4.572-6.305c1.347-1.347,2.73-2.359,3.982-2.992c1.937-0.946,3.349-1.15,4.958-0.888
		c1.602,0.298,3.822,1.201,6.801,4.15c1.601,1.602,3.378,3.807,5.212,6.72c3.378,5.344,6.88,9.792,10.483,13.395
		c5.111,5.074,10.382,8.628,16.374,10.236c2.985,0.772,6.225,1.012,9.486,0.327c3.262-0.662,6.465-2.359,8.838-4.776
		c2.643-2.62,4.259-5.897,5.074-9.174c0.822-3.312,0.924-6.69,0.553-10.141c-0.153-1.311-0.393-2.475-0.677-3.698
		c-0.553-2.279-1.289-4.754-2.214-7.572c-3.218-9.8-8.663-23.901-14.138-39.096c-5.452-15.142-10.898-31.341-13.927-44.402
		c-0.859-3.633-0.619-7.848,0.67-11.94c1.274-4.077,3.604-7.935,6.4-10.717c3.094-3.072,6.516-4.776,9.814-5.104
		c1.674-0.153,3.407-0.022,5.373,0.583c1.958,0.612,4.194,1.725,6.668,3.647c1.522,1.187,2.847,2.374,4.027,3.553
		c4.426,4.441,6.843,8.802,9.093,13.461c1.121,2.322,2.169,4.71,3.487,7.229c1.317,2.497,2.927,5.212,5.482,7.79
		c2.235,2.272,5.336,4.288,8.787,5.351c3.466,1.085,7.091,1.296,10.782,0.961h0.015c2.912-0.255,5.802-0.94,8.54-2.155
		c2.723-1.194,5.257-2.92,7.353-5.031c3.735-3.742,6.072-8.459,7.434-13.446c2.038-7.542,2.213-16.01,1.274-25.954
		c-0.968-9.931-3.167-21.332-6.509-34.392c-3.502-13.658-5.008-27.506-3.851-39.197c0.56-5.854,1.784-11.153,3.604-15.675
		c1.828-4.528,4.222-8.256,7.237-11.284c2.926-2.919,6.465-5.235,11.074-6.909c7.957-2.84,15.026-3.087,22.015-1.223
		c6.989,1.893,14.051,6.108,21.062,13.105c4.296,4.295,8.532,9.631,12.573,15.987l-0.808-1.282l0.816,1.282
		c4.106,6.442,8.438,12.186,13.33,17.087c6.072,6.079,13.148,10.884,21.302,13.534c8.139,2.68,17.116,3.13,26.566,1.537
		c10.52-1.762,26.5-2.905,41.192-1.566c7.332,0.655,14.371,1.929,20.159,3.851c5.729,1.871,10.112,4.383,12.762,7.011
		c2.621,2.643,5.14,7.033,7.018,12.762c2.883,8.693,4.266,20.152,4.404,31.312c0.182,11.183-0.808,22.154-2.125,30.024
		c-1.587,9.45-1.143,18.39,1.536,26.507c2.658,8.125,7.441,15.18,13.506,21.208c4.936,4.936,10.709,9.29,17.203,13.425
		c6.334,4.026,11.655,8.256,15.951,12.55c7.004,7.004,11.204,14.088,13.098,21.084C491.044,268.708,490.803,275.791,487.957,283.756
		z"/>
	<path class="st0" d="M375.506,238.422c-20.523-5.074-42.087-7.898-60.725-7.935c-8.889-0.08-17.808,0.48-25.94,1.602
		C410.932,109.386,408.624,107.1,407.248,105.716c-1.376-1.368-3.676-3.668-126.116,118.181c1.092-8.044,1.624-16.81,1.566-25.495
		c-0.051-18.66-2.883-40.231-7.95-60.732c-9.217-37.938-24.826-69.04-29.172-73.378c-0.276-0.284-1.092-1.1-1.893-0.677
		c-1.732,0.779-0.852,3.662,4.907,19.526c4.965,13.68,12.456,34.348,17.814,56.56c4.995,20.312,7.95,41.192,8.307,58.81
		c0.328,12.282-0.662,25.124-2.657,34.421c-24.338,24.258-52.2,52.2-85.129,85.354c0.7-5.948,1.042-12.172,1.005-18.543
		c-0.015-15.084-2.359-33.206-6.436-49.702c-7.084-29.114-19.635-55.148-24.112-59.625c-0.291-0.284-1.201-1.187-2.075-0.736
		c-1.85,0.852-0.64,4.529,4.266,18.507c4.011,11.372,9.493,26.944,13.563,43.878c4.084,16.57,6.494,33.547,6.807,47.81
		c0.291,9.704-0.466,19.948-2.002,27.454c-19.628,19.774-38.112,38.44-54.245,54.741c0.24-2.825,0.356-5.438,0.356-8.045
		c0.044-9.901-1.441-21.681-4.084-32.325c-4.543-18.63-12.312-34.173-15.93-37.799c-0.364-0.364-1.47-1.463-2.526-0.924
		c-1.995,0.924-0.808,4.922,2.912,16.337c2.235,6.836,5.009,15.347,7.193,24.426c2.614,10.622,4.187,21.418,4.441,30.402
		c0.241,6.625-0.954,13.119-1.769,17.429c-18.601,18.762-36.918,37.224-42.866,43.165c-0.32,0.335-0.32,0.874,0.007,1.202
		l5.613,5.613c0.328,0.327,0.859,0.321,1.187,0c5.948-5.948,24.251-24.12,42.888-42.568c3.509-0.691,10.222-1.754,17.538-1.485
		c9.537,0.262,20.69,1.813,30.592,4.245c8.948,2.147,17.408,4.87,24.207,7.069c11.634,3.756,15.711,4.951,16.635,2.97
		c0.553-1.085-0.561-2.206-0.932-2.57c-3.647-3.64-19.191-11.43-37.726-15.951c-10.87-2.701-22.351-4.158-32.31-4.114
		c-2.788-0.008-5.57,0.124-8.452,0.386c16.264-16.119,34.924-34.596,54.667-54.202c3.138-0.67,13.345-2.526,27.978-2.104
		c14.248,0.328,31.218,2.737,47.788,6.807c16.927,4.07,32.507,9.559,43.878,13.563c13.972,4.914,17.662,6.13,18.492,4.31
		c0.474-0.918-0.429-1.82-0.721-2.119c-4.478-4.478-30.511-17.029-59.611-24.091c-16.49-4.099-34.603-6.435-49.702-6.458
		c-6.53-0.036-12.9,0.321-18.994,1.071c33.132-32.907,61.052-60.762,85.303-85.085c3.8-0.845,16.468-3.262,34.923-2.745
		c17.589,0.342,38.477,3.291,58.796,8.286c22.205,5.344,42.873,12.85,56.553,17.807c15.871,5.766,18.761,6.654,19.519,4.972
		c0.437-0.851-0.379-1.674-0.641-1.936C444.538,263.248,413.436,247.639,375.506,238.422z"/>
</g>
</svg>